Coordinates
version=1
nRows=9
nColumns=24
inDegrees=yes

Units are S.I. units (second, meters, Newtons, ...)
Angles are in degrees.

endheader
time	pelvis_tilt	pelvis_list	pelvis_rotation	pelvis_tx	pelvis_ty	pelvis_tz	hip_flexion_r	hip_adduction_r	hip_rotation_r	knee_angle_r	ankle_angle_r	subtalar_angle_r	mtp_angle_r	hip_flexion_l	hip_adduction_l	hip_rotation_l	knee_angle_l	ankle_angle_l	subtalar_angle_l	mtp_angle_l	lumbar_extension	lumbar_bending	lumbar_rotation
      4.59000000	    -16.22586308	      4.03800385	     -8.49996546	     -1.22182028	     -0.03848587	     -0.32153463	      0.66295219	     -1.75805457	      3.02633269	    -20.84697957	     10.10296683	     -1.87468484	     -0.28277693	     43.46937835	     -3.88999705	    -17.91327435	    -14.29781831	     -1.76092060	      7.07703691	     20.40488348	     20.65860448	     -3.13765622	     -3.85660943
      4.59500000	    -16.13406172	      4.24140509	     -8.54145836	     -1.21402737	     -0.03925699	     -0.32219530	      0.53362313	     -2.16973949	      2.75180209	    -21.57763427	      9.45347722	     -1.63416441	      0.67959074	     43.33881673	     -3.63453159	    -17.68408300	    -14.86136511	     -2.24308203	      6.49972068	     20.29988271	     20.75973332	     -3.32165071	     -3.80465016
      4.60000000	    -16.12846078	      4.52055796	     -8.69371146	     -1.20614862	     -0.04001590	     -0.32258214	      0.54728593	     -2.59631169	      2.83179165	    -22.38142175	      8.73854542	     -1.61648355	      0.95153199	     43.27242731	     -3.42945041	    -17.70484681	    -15.43317681	     -2.85692292	      5.97978151	     20.20775805	     20.99945740	     -3.54043485	     -3.63708182
      4.60500000	    -16.10552480	      4.77162202	     -8.68028938	     -1.19822126	     -0.04076417	     -0.32337043	      0.55715114	     -3.07130771	      2.45749732	    -23.19027438	      7.92786177	     -1.37613631	      2.19459189	     43.21178166	     -3.08343273	    -17.45212357	    -15.99997372	     -3.68145184	      5.08550645	     20.18882340	     21.20292477	     -3.77201646	     -3.64384415
      4.61000000	    -16.10841992	      5.07995311	     -8.82014421	     -1.19036815	     -0.04144656	     -0.32389168	      0.70728586	     -3.56374854	      2.34588381	    -24.14491654	      7.04857366	     -1.30365531	      2.89070492	     43.15355027	     -2.80775921	    -17.29869218	    -16.55666720	     -4.54319906	      4.21760460	     20.04431436	     21.45184136	     -4.00557575	     -3.41179561
      4.61500000	    -16.13926778	      5.41604244	     -8.85054089	     -1.18241025	     -0.04209838	     -0.32457354	      0.89776366	     -4.10403795	      2.07981160	    -25.11020476	      6.06331833	     -1.22597315	      3.77371991	     43.14324436	     -2.41945371	    -17.05037714	    -17.11697261	     -5.52512485	      3.18755249	     19.81345576	     21.74494652	     -4.29887312	     -3.32399617
      4.62000000	    -16.19009555	      5.78036039	     -8.74023016	     -1.17433064	     -0.04272179	     -0.32538299	      1.10191865	     -4.69703918	      1.59425832	    -26.02330745	      4.86424299	     -1.35426342	      5.81361666	     43.17521098	     -1.90836660	    -16.65634836	    -17.69913052	     -6.50643589	      2.21482677	     19.42456690	     22.07300350	     -4.67711563	     -3.37541627
      4.62500000	    -16.23116986	      6.15234758	     -8.81530217	     -1.16645953	     -0.04322262	     -0.32607633	      1.44499135	     -5.28446400	      1.37681255	    -27.14267443	      3.65137845	     -1.32963711	      6.68270583	     43.19904848	     -1.49485793	    -16.31834073	    -18.29821253	     -7.43005254	      0.98061852	     18.88099162	     22.37944826	     -4.97013257	     -3.21524360
      4.63000000	    -16.28139275	      6.55832727	     -8.72108778	     -1.15847995	     -0.04368059	     -0.32688336	      1.77535412	     -5.92668931	      0.94593142	    -28.16486036	      2.15904871	     -1.70546098	      9.24521106	     43.26849128	     -0.93395415	    -15.78335405	    -18.98257807	     -8.17695991	     -0.00877275	     17.67652819	     22.70506111	     -5.38216033	     -3.21189092
